{
    "asset" : {
        "generator" : "Khronos glTF Blender I/O v1.8.19",
        "version" : "2.0"
    },
    "scene" : 0,
    "scenes" : [
        {
            "name" : "Scene",
            "nodes" : [
                0,
                1,
                2
            ]
        }
    ],
    "nodes" : [
        {
            "mesh" : 0,
            "name" : "cornell"
        },
        {
            "mesh" : 1,
            "name" : "cornell.001"
        },
        {
            "mesh" : 2,
            "name" : "cornell.002"
        }
    ],
    "materials" : [
        {
            "name" : "green",
            "pbrMetallicRoughness" : {
                "baseColorFactor" : [
                    0.14000000059604645,
                    0.44999998807907104,
                    0.09099999815225601,
                    1
                ],
                "metallicFactor" : 0
            }
        },
        {
            "name" : "white",
            "pbrMetallicRoughness" : {
                "baseColorFactor" : [
                    0.7250000238418579,
                    0.7099999785423279,
                    0.6800000071525574,
                    1
                ],
                "metallicFactor" : 0
            }
        },
        {
            "name" : "red",
            "pbrMetallicRoughness" : {
                "baseColorFactor" : [
                    0.6299999952316284,
                    0.06499999761581421,
                    0.05000000074505806,
                    1
                ],
                "metallicFactor" : 0
            }
        }
    ],
    "meshes" : [
        {
            "name" : "cornell",
            "primitives" : [
                {
                    "attributes" : {
                        "POSITION" : 0,
                        "NORMAL" : 1,
                        "TEXCOORD_0" : 2
                    },
                    "indices" : 3,
                    "material" : 0
                }
            ]
        },
        {
            "name" : "cornell.001",
            "primitives" : [
                {
                    "attributes" : {
                        "POSITION" : 4,
                        "NORMAL" : 5,
                        "TEXCOORD_0" : 6
                    },
                    "indices" : 7,
                    "material" : 1
                }
            ]
        },
        {
            "name" : "cornell.002",
            "primitives" : [
                {
                    "attributes" : {
                        "POSITION" : 8,
                        "NORMAL" : 9,
                        "TEXCOORD_0" : 10
                    },
                    "indices" : 3,
                    "material" : 2
                }
            ]
        }
    ],
    "accessors" : [
        {
            "bufferView" : 0,
            "componentType" : 5126,
            "count" : 6,
            "max" : [
                1,
                2.000000476837158,
                1.0000003576278687
            ],
            "min" : [
                1,
                -1.3435885648505064e-07,
                -1.0000001192092896
            ],
            "type" : "VEC3"
        },
        {
            "bufferView" : 1,
            "componentType" : 5126,
            "count" : 6,
            "type" : "VEC3"
        },
        {
            "bufferView" : 2,
            "componentType" : 5126,
            "count" : 6,
            "type" : "VEC2"
        },
        {
            "bufferView" : 3,
            "componentType" : 5123,
            "count" : 6,
            "type" : "SCALAR"
        },
        {
            "bufferView" : 4,
            "componentType" : 5126,
            "count" : 82,
            "max" : [
                1,
                2.000000238418579,
                1.0000003576278687
            ],
            "min" : [
                -1,
                -0.020000122487545013,
                -1
            ],
            "type" : "VEC3"
        },
        {
            "bufferView" : 5,
            "componentType" : 5126,
            "count" : 82,
            "type" : "VEC3"
        },
        {
            "bufferView" : 6,
            "componentType" : 5126,
            "count" : 82,
            "type" : "VEC2"
        },
        {
            "bufferView" : 7,
            "componentType" : 5123,
            "count" : 90,
            "type" : "SCALAR"
        },
        {
            "bufferView" : 8,
            "componentType" : 5126,
            "count" : 6,
            "max" : [
                -1,
                2.000000476837158,
                1.0000003576278687
            ],
            "min" : [
                -1,
                -1.3435885648505064e-07,
                -1.0000001192092896
            ],
            "type" : "VEC3"
        },
        {
            "bufferView" : 9,
            "componentType" : 5126,
            "count" : 6,
            "type" : "VEC3"
        },
        {
            "bufferView" : 10,
            "componentType" : 5126,
            "count" : 6,
            "type" : "VEC2"
        }
    ],
    "bufferViews" : [
        {
            "buffer" : 0,
            "byteLength" : 72,
            "byteOffset" : 0
        },
        {
            "buffer" : 0,
            "byteLength" : 72,
            "byteOffset" : 72
        },
        {
            "buffer" : 0,
            "byteLength" : 48,
            "byteOffset" : 144
        },
        {
            "buffer" : 0,
            "byteLength" : 12,
            "byteOffset" : 192
        },
        {
            "buffer" : 0,
            "byteLength" : 984,
            "byteOffset" : 204
        },
        {
            "buffer" : 0,
            "byteLength" : 984,
            "byteOffset" : 1188
        },
        {
            "buffer" : 0,
            "byteLength" : 656,
            "byteOffset" : 2172
        },
        {
            "buffer" : 0,
            "byteLength" : 180,
            "byteOffset" : 2828
        },
        {
            "buffer" : 0,
            "byteLength" : 72,
            "byteOffset" : 3008
        },
        {
            "buffer" : 0,
            "byteLength" : 72,
            "byteOffset" : 3080
        },
        {
            "buffer" : 0,
            "byteLength" : 48,
            "byteOffset" : 3152
        }
    ],
    "buffers" : [
        {
            "byteLength" : 3200,
            "uri" : "data:application/octet-stream;base64,"
        }
    ]
}
