{
    "asset" : {
        "generator" : "Khronos glTF Blender I/O v1.8.19",
        "version" : "2.0"
    },
    "scene" : 0,
    "scenes" : [
        {
            "name" : "Scene",
            "nodes" : [
                0,
                1,
                2,
                3,
                4
            ]
        }
    ],
    "nodes" : [
        {
            "mesh" : 0,
            "name" : "cornell"
        },
        {
            "mesh" : 1,
            "name" : "cornell.001"
        },
        {
            "mesh" : 2,
            "name" : "cornell.002"
        },
        {
            "mesh" : 3,
            "name" : "Icosphere",
            "scale" : [
                0.6043016910552979,
                0.6043016910552979,
                0.6043016910552979
            ],
            "translation" : [
                0.3548840880393982,
                0.9074807167053223,
                0.3656625747680664
            ]
        },
        {
            "mesh" : 4,
            "name" : "Cube",
            "scale" : [
                -0.3327798843383789,
                -0.3327798843383789,
                -0.3327798843383789
            ],
            "translation" : [
                1.8630036115646362,
                0.43770062923431396,
                0.03803849220275879
            ]
        }
    ],
    "materials" : [
        {
            "name" : "green",
            "pbrMetallicRoughness" : {
                "baseColorFactor" : [
                    0.14000000059604645,
                    0.44999998807907104,
                    0.09099999815225601,
                    1
                ],
                "metallicFactor" : 0
            }
        },
        {
            "name" : "white",
            "pbrMetallicRoughness" : {
                "baseColorFactor" : [
                    0.7250000238418579,
                    0.7099999785423279,
                    0.6800000071525574,
                    1
                ],
                "metallicFactor" : 0
            }
        },
        {
            "name" : "red",
            "pbrMetallicRoughness" : {
                "baseColorFactor" : [
                    0.6299999952316284,
                    0.06499999761581421,
                    0.05000000074505806,
                    1
                ],
                "metallicFactor" : 0
            }
        }
    ],
    "meshes" : [
        {
            "name" : "cornell",
            "primitives" : [
                {
                    "attributes" : {
                        "POSITION" : 0,
                        "NORMAL" : 1,
                        "TANGENT" : 2,
                        "TEXCOORD_0" : 3
                    },
                    "indices" : 4,
                    "material" : 0
                }
            ]
        },
        {
            "name" : "cornell.001",
            "primitives" : [
                {
                    "attributes" : {
                        "POSITION" : 5,
                        "NORMAL" : 6,
                        "TANGENT" : 7,
                        "TEXCOORD_0" : 8
                    },
                    "indices" : 9,
                    "material" : 1
                }
            ]
        },
        {
            "name" : "cornell.002",
            "primitives" : [
                {
                    "attributes" : {
                        "POSITION" : 10,
                        "NORMAL" : 11,
                        "TANGENT" : 12,
                        "TEXCOORD_0" : 13
                    },
                    "indices" : 4,
                    "material" : 2
                }
            ]
        },
        {
            "name" : "Icosphere",
            "primitives" : [
                {
                    "attributes" : {
                        "POSITION" : 14,
                        "NORMAL" : 15,
                        "TANGENT" : 16,
                        "TEXCOORD_0" : 17
                    },
                    "indices" : 18
                }
            ]
        },
        {
            "name" : "Cube.001",
            "primitives" : [
                {
                    "attributes" : {
                        "POSITION" : 19,
                        "NORMAL" : 20,
                        "TANGENT" : 21,
                        "TEXCOORD_0" : 22
                    },
                    "indices" : 23
                }
            ]
        }
    ],
    "accessors" : [
        {
            "bufferView" : 0,
            "componentType" : 5126,
            "count" : 6,
            "max" : [
                1,
                2.000000476837158,
                1.0000003576278687
            ],
            "min" : [
                1,
                -1.3435885648505064e-07,
                -1.0000001192092896
            ],
            "type" : "VEC3"
        },
        {
            "bufferView" : 1,
            "componentType" : 5126,
            "count" : 6,
            "type" : "VEC3"
        },
        {
            "bufferView" : 2,
            "componentType" : 5126,
            "count" : 6,
            "type" : "VEC4"
        },
        {
            "bufferView" : 3,
            "componentType" : 5126,
            "count" : 6,
            "type" : "VEC2"
        },
        {
            "bufferView" : 4,
            "componentType" : 5123,
            "count" : 6,
            "type" : "SCALAR"
        },
        {
            "bufferView" : 5,
            "componentType" : 5126,
            "count" : 82,
            "max" : [
                1,
                2.000000238418579,
                1.0000003576278687
            ],
            "min" : [
                -1,
                -0.020000122487545013,
                -1
            ],
            "type" : "VEC3"
        },
        {
            "bufferView" : 6,
            "componentType" : 5126,
            "count" : 82,
            "type" : "VEC3"
        },
        {
            "bufferView" : 7,
            "componentType" : 5126,
            "count" : 82,
            "type" : "VEC4"
        },
        {
            "bufferView" : 8,
            "componentType" : 5126,
            "count" : 82,
            "type" : "VEC2"
        },
        {
            "bufferView" : 9,
            "componentType" : 5123,
            "count" : 90,
            "type" : "SCALAR"
        },
        {
            "bufferView" : 10,
            "componentType" : 5126,
            "count" : 6,
            "max" : [
                -1,
                2.000000476837158,
                1.0000003576278687
            ],
            "min" : [
                -1,
                -1.3435885648505064e-07,
                -1.0000001192092896
            ],
            "type" : "VEC3"
        },
        {
            "bufferView" : 11,
            "componentType" : 5126,
            "count" : 6,
            "type" : "VEC3"
        },
        {
            "bufferView" : 12,
            "componentType" : 5126,
            "count" : 6,
            "type" : "VEC4"
        },
        {
            "bufferView" : 13,
            "componentType" : 5126,
            "count" : 6,
            "type" : "VEC2"
        },
        {
            "bufferView" : 14,
            "componentType" : 5126,
            "count" : 2737,
            "max" : [
                0.5,
                0.5,
                0.4999999701976776
            ],
            "min" : [
                -0.4999999701976776,
                -0.5,
                -0.4999999701976776
            ],
            "type" : "VEC3"
        },
        {
            "bufferView" : 15,
            "componentType" : 5126,
            "count" : 2737,
            "type" : "VEC3"
        },
        {
            "bufferView" : 16,
            "componentType" : 5126,
            "count" : 2737,
            "type" : "VEC4"
        },
        {
            "bufferView" : 17,
            "componentType" : 5126,
            "count" : 2737,
            "type" : "VEC2"
        },
        {
            "bufferView" : 18,
            "componentType" : 5123,
            "count" : 15360,
            "type" : "SCALAR"
        },
        {
            "bufferView" : 19,
            "componentType" : 5126,
            "count" : 24,
            "max" : [
                1,
                1,
                1
            ],
            "min" : [
                -1,
                -1,
                -1
            ],
            "type" : "VEC3"
        },
        {
            "bufferView" : 20,
            "componentType" : 5126,
            "count" : 24,
            "type" : "VEC3"
        },
        {
            "bufferView" : 21,
            "componentType" : 5126,
            "count" : 24,
            "type" : "VEC4"
        },
        {
            "bufferView" : 22,
            "componentType" : 5126,
            "count" : 24,
            "type" : "VEC2"
        },
        {
            "bufferView" : 23,
            "componentType" : 5123,
            "count" : 36,
            "type" : "SCALAR"
        }
    ],
    "bufferViews" : [
        {
            "buffer" : 0,
            "byteLength" : 72,
            "byteOffset" : 0
        },
        {
            "buffer" : 0,
            "byteLength" : 72,
            "byteOffset" : 72
        },
        {
            "buffer" : 0,
            "byteLength" : 96,
            "byteOffset" : 144
        },
        {
            "buffer" : 0,
            "byteLength" : 48,
            "byteOffset" : 240
        },
        {
            "buffer" : 0,
            "byteLength" : 12,
            "byteOffset" : 288
        },
        {
            "buffer" : 0,
            "byteLength" : 984,
            "byteOffset" : 300
        },
        {
            "buffer" : 0,
            "byteLength" : 984,
            "byteOffset" : 1284
        },
        {
            "buffer" : 0,
            "byteLength" : 1312,
            "byteOffset" : 2268
        },
        {
            "buffer" : 0,
            "byteLength" : 656,
            "byteOffset" : 3580
        },
        {
            "buffer" : 0,
            "byteLength" : 180,
            "byteOffset" : 4236
        },
        {
            "buffer" : 0,
            "byteLength" : 72,
            "byteOffset" : 4416
        },
        {
            "buffer" : 0,
            "byteLength" : 72,
            "byteOffset" : 4488
        },
        {
            "buffer" : 0,
            "byteLength" : 96,
            "byteOffset" : 4560
        },
        {
            "buffer" : 0,
            "byteLength" : 48,
            "byteOffset" : 4656
        },
        {
            "buffer" : 0,
            "byteLength" : 32844,
            "byteOffset" : 4704
        },
        {
            "buffer" : 0,
            "byteLength" : 32844,
            "byteOffset" : 37548
        },
        {
            "buffer" : 0,
            "byteLength" : 43792,
            "byteOffset" : 70392
        },
        {
            "buffer" : 0,
            "byteLength" : 21896,
            "byteOffset" : 114184
        },
        {
            "buffer" : 0,
            "byteLength" : 30720,
            "byteOffset" : 136080
        },
        {
            "buffer" : 0,
            "byteLength" : 288,
            "byteOffset" : 166800
        },
        {
            "buffer" : 0,
            "byteLength" : 288,
            "byteOffset" : 167088
        },
        {
            "buffer" : 0,
            "byteLength" : 384,
            "byteOffset" : 167376
        },
        {
            "buffer" : 0,
            "byteLength" : 192,
            "byteOffset" : 167760
        },
        {
            "buffer" : 0,
            "byteLength" : 72,
            "byteOffset" : 167952
        }
    ],
    "buffers" : [
        {
            "byteLength" : 168024,
            "uri" : "data:application/octet-stream;base64,"
        }
    ]
}
