{
    "asset" : {
        "generator" : "Khronos glTF Blender I/O v1.5.17",
        "version" : "2.0"
    },
    "scene" : 0,
    "scenes" : [
        {
            "name" : "Scene",
            "nodes" : [
                4
            ]
        }
    ],
    "nodes" : [
        {
            "mesh" : 0,
            "name" : "Sphere",
            "translation" : [
                0,
                -1.5,
                1
            ]
        },
        {
            "mesh" : 1,
            "name" : "Torus",
            "translation" : [
                0,
                -1.5,
                -1
            ]
        },
        {
            "children" : [
                0,
                1
            ],
            "mesh" : 2,
            "name" : "Cone",
            "translation" : [
                0,
                -1.5,
                -1
            ]
        },
        {
            "mesh" : 3,
            "name" : "Cylinder",
            "translation" : [
                0,
                -1.5,
                1
            ]
        },
        {
            "children" : [
                2,
                3
            ],
            "mesh" : 4,
            "name" : "Cube"
        }
    ],
    "meshes" : [
        {
            "name" : "Sphere",
            "primitives" : [
                {
                    "attributes" : {
                        "POSITION" : 0,
                        "NORMAL" : 1,
                        "TEXCOORD_0" : 2
                    },
                    "indices" : 3
                }
            ]
        },
        {
            "name" : "Torus",
            "primitives" : [
                {
                    "attributes" : {
                        "POSITION" : 4,
                        "NORMAL" : 5,
                        "TEXCOORD_0" : 6
                    },
                    "indices" : 7
                }
            ]
        },
        {
            "name" : "Cone",
            "primitives" : [
                {
                    "attributes" : {
                        "POSITION" : 8,
                        "NORMAL" : 9,
                        "TEXCOORD_0" : 10
                    },
                    "indices" : 11
                }
            ]
        },
        {
            "name" : "Cylinder",
            "primitives" : [
                {
                    "attributes" : {
                        "POSITION" : 12,
                        "NORMAL" : 13,
                        "TEXCOORD_0" : 14
                    },
                    "indices" : 15
                }
            ]
        },
        {
            "name" : "Cube.001",
            "primitives" : [
                {
                    "attributes" : {
                        "POSITION" : 16,
                        "NORMAL" : 17,
                        "TEXCOORD_0" : 18
                    },
                    "indices" : 19
                }
            ]
        }
    ],
    "accessors" : [
        {
            "bufferView" : 0,
            "componentType" : 5126,
            "count" : 1984,
            "max" : [
                0.5000001192092896,
                0.5,
                0.5000001788139343
            ],
            "min" : [
                -0.49999991059303284,
                -0.5,
                -0.5
            ],
            "type" : "VEC3"
        },
        {
            "bufferView" : 1,
            "componentType" : 5126,
            "count" : 1984,
            "type" : "VEC3"
        },
        {
            "bufferView" : 2,
            "componentType" : 5126,
            "count" : 1984,
            "type" : "VEC2"
        },
        {
            "bufferView" : 3,
            "componentType" : 5123,
            "count" : 2880,
            "type" : "SCALAR"
        },
        {
            "bufferView" : 4,
            "componentType" : 5126,
            "count" : 2304,
            "max" : [
                0.625,
                0.125,
                0.625
            ],
            "min" : [
                -0.625,
                -0.125,
                -0.625
            ],
            "type" : "VEC3"
        },
        {
            "bufferView" : 5,
            "componentType" : 5126,
            "count" : 2304,
            "type" : "VEC3"
        },
        {
            "bufferView" : 6,
            "componentType" : 5126,
            "count" : 2304,
            "type" : "VEC2"
        },
        {
            "bufferView" : 7,
            "componentType" : 5123,
            "count" : 3456,
            "type" : "SCALAR"
        },
        {
            "bufferView" : 8,
            "componentType" : 5126,
            "count" : 128,
            "max" : [
                0.5,
                0.5,
                0.5
            ],
            "min" : [
                -0.5,
                -0.5,
                -0.5
            ],
            "type" : "VEC3"
        },
        {
            "bufferView" : 9,
            "componentType" : 5126,
            "count" : 128,
            "type" : "VEC3"
        },
        {
            "bufferView" : 10,
            "componentType" : 5126,
            "count" : 128,
            "type" : "VEC2"
        },
        {
            "bufferView" : 11,
            "componentType" : 5123,
            "count" : 186,
            "type" : "SCALAR"
        },
        {
            "bufferView" : 12,
            "componentType" : 5126,
            "count" : 192,
            "max" : [
                0.5,
                0.5,
                0.5
            ],
            "min" : [
                -0.5,
                -0.5,
                -0.5
            ],
            "type" : "VEC3"
        },
        {
            "bufferView" : 13,
            "componentType" : 5126,
            "count" : 192,
            "type" : "VEC3"
        },
        {
            "bufferView" : 14,
            "componentType" : 5126,
            "count" : 192,
            "type" : "VEC2"
        },
        {
            "bufferView" : 15,
            "componentType" : 5123,
            "count" : 372,
            "type" : "SCALAR"
        },
        {
            "bufferView" : 16,
            "componentType" : 5126,
            "count" : 24,
            "max" : [
                0.5,
                0.5,
                0.5
            ],
            "min" : [
                -0.5,
                -0.5,
                -0.5
            ],
            "type" : "VEC3"
        },
        {
            "bufferView" : 17,
            "componentType" : 5126,
            "count" : 24,
            "type" : "VEC3"
        },
        {
            "bufferView" : 18,
            "componentType" : 5126,
            "count" : 24,
            "type" : "VEC2"
        },
        {
            "bufferView" : 19,
            "componentType" : 5123,
            "count" : 36,
            "type" : "SCALAR"
        }
    ],
    "bufferViews" : [
        {
            "buffer" : 0,
            "byteLength" : 23808,
            "byteOffset" : 0
        },
        {
            "buffer" : 0,
            "byteLength" : 23808,
            "byteOffset" : 23808
        },
        {
            "buffer" : 0,
            "byteLength" : 15872,
            "byteOffset" : 47616
        },
        {
            "buffer" : 0,
            "byteLength" : 5760,
            "byteOffset" : 63488
        },
        {
            "buffer" : 0,
            "byteLength" : 27648,
            "byteOffset" : 69248
        },
        {
            "buffer" : 0,
            "byteLength" : 27648,
            "byteOffset" : 96896
        },
        {
            "buffer" : 0,
            "byteLength" : 18432,
            "byteOffset" : 124544
        },
        {
            "buffer" : 0,
            "byteLength" : 6912,
            "byteOffset" : 142976
        },
        {
            "buffer" : 0,
            "byteLength" : 1536,
            "byteOffset" : 149888
        },
        {
            "buffer" : 0,
            "byteLength" : 1536,
            "byteOffset" : 151424
        },
        {
            "buffer" : 0,
            "byteLength" : 1024,
            "byteOffset" : 152960
        },
        {
            "buffer" : 0,
            "byteLength" : 372,
            "byteOffset" : 153984
        },
        {
            "buffer" : 0,
            "byteLength" : 2304,
            "byteOffset" : 154356
        },
        {
            "buffer" : 0,
            "byteLength" : 2304,
            "byteOffset" : 156660
        },
        {
            "buffer" : 0,
            "byteLength" : 1536,
            "byteOffset" : 158964
        },
        {
            "buffer" : 0,
            "byteLength" : 744,
            "byteOffset" : 160500
        },
        {
            "buffer" : 0,
            "byteLength" : 288,
            "byteOffset" : 161244
        },
        {
            "buffer" : 0,
            "byteLength" : 288,
            "byteOffset" : 161532
        },
        {
            "buffer" : 0,
            "byteLength" : 192,
            "byteOffset" : 161820
        },
        {
            "buffer" : 0,
            "byteLength" : 72,
            "byteOffset" : 162012
        }
    ],
    "buffers" : [
        {
            "byteLength" : 162084,
            "uri" : "data:application/octet-stream;base64,"
        }
    ]
}
